<svg xmlns="http://www.w3.org/2000/svg" xmlns:xlink="http://www.w3.org/1999/xlink" version="1.1" style="enable-background:new 0 0 42 90;" xml:space="preserve" width="42" height="90"><rect id="backgroundrect" width="100%" height="100%" x="0" y="0" fill="none" stroke="none"/>

<g class="currentLayer" style=""><title>Layer 1</title><path id="Facebook_3_" d="M9.1,17.4c0,2.3,0,12.4,0,12.4H0V45h9.1v45h18.6V45h12.5c0,0,1.2-7.3,1.7-15.2c-1.6,0-14.2,0-14.2,0  s0-8.8,0-10.4c0-1.5,2-3.6,4-3.6c2,0,6.2,0,10.2,0c0-2.1,0-9.2,0-15.8c-5.2,0-11.2,0-13.8,0C8.6,0,9.1,15.2,9.1,17.4z" class="selected" fill-opacity="1" fill="#cecece"/></g></svg>